<?xml version="1.0" encoding="utf-8"?>
<!-- Generator: Adobe Illustrator 16.0.0, SVG Export Plug-In . SVG Version: 6.00 Build 0)  -->
<!DOCTYPE svg PUBLIC "-//W3C//DTD SVG 1.1//EN" "http://www.w3.org/Graphics/SVG/1.1/DTD/svg11.dtd">
<svg version="1.1" id="Capa_1" xmlns="http://www.w3.org/2000/svg" xmlns:xlink="http://www.w3.org/1999/xlink" x="0px" y="0px"
	 width="484.006px" height="484.006px" viewBox="0 0 484.006 484.006" enable-background="new 0 0 484.006 484.006"
	 xml:space="preserve">
<g>
	<path fill="#616BBB" d="M151.097,211.406l-8.066,5.092l-8.116,5.005l0.422-0.729l0,0.008l-0.422-0.729l14.34,7.66
		c2.397,1.264,4.761,2.587,7.137,3.888l7.122,3.915L192,251.174l56.557,32.041l-1.342-0.358h0.016l-1.342,0.358l28.281-16.018
		l14.141-8.008l7.07-4.005c2.362-1.324,4.701-2.69,7.083-3.982l28.484-15.662c4.758-2.592,9.471-5.263,14.267-7.789l14.339-7.663
		l-0.401,0.693l0.001-0.008l0.4,0.693l-7.58-4.681l-7.539-4.755l0.15-0.26l15.451,8.857l0.084,0.048v0.097v0.008v0.097l-0.084,0.048
		L247.38,285.809l-0.069,0.04h-0.08h-0.016h-0.08l-0.069-0.04l-112.655-64.88l-0.085-0.049v-0.098v-0.008v-0.098l0.085-0.049
		l16.537-9.48L151.097,211.406z"/>
</g>
<g>
	<g>
		<path fill="#616BBB" d="M248.358,243.176l-0.056,0.001l-0.037,0.001l-0.038-0.021l-17.767-9.764l-17.719-9.846l-35.436-19.698
			l-70.653-39.775l-1.049-0.591l-0.011-1.24l0-0.009l-0.01-1.204l1.07-0.627l17.487-10.25l17.541-10.157l35.092-20.297
			l70.186-40.589l0.624-0.361l0.72,0.002l0.016,0l0.728,0.002l0.616,0.356l70.184,40.593l35.092,20.297l17.538,10.163l17.488,10.249
			l1.065,0.625l-0.011,1.199v0.009l-0.011,1.235l-1.045,0.588l-70.652,39.776l-35.434,19.701l-17.719,9.847L248.358,243.176z
			 M248.31,242.858l140.493-80.81l-0.112,0.195v-0.009l0.112,0.195L248.168,81.707l0.149,0.04h-0.016l0.149-0.04l-140.635,80.722
			l0.113-0.195v0.009l-0.113-0.195L248.31,242.858z"/>
	</g>
</g>
<g>
	<path fill="#616BBB" d="M358.687,259.278c1.221,1.251,2.475,2.476,3.669,3.749c1.202,1.267,2.421,2.52,3.598,3.807l3.556,3.84
		l3.496,3.889l-2.694,0.035c2.15-3.208,4.408-6.334,6.616-9.499c1.099-1.585,2.238-3.141,3.371-4.7l3.399-4.68l0.022,3.089
		c-1.75-2.091-3.436-4.232-5.139-6.36l-5.104-6.39l-0.537-0.672l-0.036-0.863l-0.322-7.708l-0.157-3.854
		c-0.047-1.285-0.119-2.568-0.144-3.854l-0.194-7.714c-0.079-2.571-0.118-5.143-0.133-7.717c-0.017-2.574-0.068-5.146-0.057-7.721
		l0.044-7.726c0.06-2.577,0.087-5.153,0.172-7.732c0.073-2.578,0.188-5.158,0.334-7.74l0.299-0.015l3.15,61.635l-0.063-0.17
		l10.074,12.882l0.124,0.158l-0.122,0.159l-14.076,18.353l-0.156,0.204l-0.161-0.2l-13.062-16.297L358.687,259.278z"/>
</g>
<g>
	<g>
		<g>
			<path fill="none" stroke="#616BBB" stroke-width="2" stroke-miterlimit="10" d="M13.055,400.223
				c0.208-1.455,1.664-13,1.664-17.057c0-2.703,0.624-13.936,0.312-16.432l2.392,0.623c-0.104,1.353,0.416,7.281,0.728,9.152
				c2.808,6.656,8.944,11.337,16.121,11.337c8.216,0,14.769-5.408,14.769-13.104c0-8.424-6.552-12.584-13.312-16.953
				c-10.192-6.656-18.305-12.48-18.305-24.232c0-8.112,6.032-18.305,21.425-18.305c6.136,0,11.544,1.248,14.041,1.872
				c0.728-2.496,1.248-5.616,1.872-8.425l2.392-0.312c-1.456,10.296-2.496,19.969-2.496,28.497l-2.392-1.04
				c0-3.536-0.208-6.032-0.416-7.904c-1.144-3.744-6.552-9.36-13.833-9.36c-8.944,0-12.688,5.721-12.688,10.4
				c0,6.76,7.072,10.4,14.977,15.393c8.632,5.408,17.369,11.232,17.369,24.337c0,14.456-11.44,22.673-25.585,22.673
				c-4.992,0-11.44-1.04-14.353-2.6c-0.52,1.976-1.56,6.968-2.288,10.816L13.055,400.223z"/>
		</g>
	</g>
	<g>
		<g>
			<path fill="none" stroke="#616BBB" stroke-width="2" stroke-miterlimit="10" d="M138.689,339.589
				c0-1.976-0.312-6.864-0.624-8.632c-1.976-4.576-11.648-12.064-25.065-12.064c-18.929,0-30.889,13.729-30.889,29.953
				c0,20.28,16.745,37.441,38.689,37.441c7.904,0,17.265-1.248,24.649-5.617l-1.456,4.473c-2.392,1.977-12.896,6.24-29.225,6.24
				c-3.848,0-15.185-0.416-23.609-4.576c-13.521-6.656-21.529-18.513-21.529-31.825c0-14.353,7.28-24.961,16.433-31.097
				c10.816-7.281,20.489-8.633,30.993-8.633c9.152,0,18.825,1.872,21.737,2.704c0.624-1.353,1.872-8.009,2.184-9.257l2.392-0.52
				c-1.56,11.44-2.184,22.257-2.288,32.137L138.689,339.589z"/>
		</g>
	</g>
	<g>
		<g>
			<path fill="none" stroke="#616BBB" stroke-width="2" stroke-miterlimit="10" d="M164.893,345.829
				c0-3.744-0.104-23.713-0.52-25.688c-1.768-0.416-8.84-1.041-11.128-1.248l-0.312-2.185l22.465-0.104
				c9.88,0,22.257,0.104,29.329,2.912c5.512,2.185,8.944,6.137,8.944,11.857c0,6.552-6.656,15.184-14.665,19.656
				c1.144,2.6,17.889,29.85,28.705,41.289l-4.576,0.729c-7.28-3.328-34.945-35.258-36.609-37.441
				c-3.952,0.312-8.216,0.624-9.984,0.624v2.704c0,6.76,0.208,22.777,0.52,27.561c1.768,0.521,8.632,1.248,10.92,1.457l0.416,2.184
				c-2.6-0.208-13.104-0.416-17.889-0.416c-4.264,0-15.185,0.208-17.577,0.416l0.416-2.184c1.456-0.104,8.112-0.729,11.024-1.457
				c0.416-3.016,0.52-23.4,0.52-34.32V345.829z"/>
			<path fill="none" stroke="#616BBB" stroke-width="2" stroke-miterlimit="10" d="M176.542,353.006
				c3.744,0,8.216-0.312,12.688-1.977s11.856-6.448,11.856-16.744c0-6.656-6.032-14.77-24.025-14.77
				c-0.312,4.265-0.52,22.881-0.52,30.266V353.006z"/>
		</g>
	</g>
	<g>
		<g>
			<path fill="none" stroke="#616BBB" stroke-width="2" stroke-miterlimit="10" d="M254.644,353.526
				c0,13.521,0.104,30.889,0.521,32.969c2.601,0.625,8.841,1.248,10.921,1.457l0.52,2.184c-2.288-0.208-13.104-0.416-19.553-0.416
				c-3.536,0-13.104,0.208-16.225,0.416l0.416-2.184c1.768-0.104,8.84-1.041,11.024-1.457c0.416-4.367,0.521-23.608,0.521-33.801
				v-6.137c0-3.432-0.104-22.881-0.521-26.416c-2.08-0.416-8.944-1.248-10.92-1.457l-0.52-2.184
				c1.976,0.208,11.544,0.416,19.761,0.416c5.304,0,14.249-0.208,16.017-0.416l-0.52,2.184c-2.08,0.209-7.177,1.041-10.921,1.457
				c-0.416,2.08-0.521,14.145-0.521,26.937V353.526z"/>
		</g>
	</g>
	<g>
		<g>
			<path fill="none" stroke="#616BBB" stroke-width="2" stroke-miterlimit="10" d="M288.546,348.117
				c0-7.488-0.312-23.713-0.728-27.977c-3.536-0.625-7.696-0.832-10.712-1.041l-0.521-2.184c3.433-0.104,23.297-0.832,29.849-0.832
				c20.281,0,23.401,8.633,23.401,13.521c0,3.017-0.104,5.616-2.704,9.776c-3.848,6.032-9.984,9.36-13.416,10.816v0.312
				c10.296,1.664,21.32,9.048,21.32,20.072c0,11.961-9.776,19.969-24.232,19.969c-1.457,0-4.992-0.208-8.736-0.416
				c-3.641-0.208-7.488-0.416-9.673-0.416c-2.288,0-12.792,0.208-15.809,0.416l0.416-2.184c2.392-0.209,8.632-0.832,10.816-1.457
				c0.728-7.176,0.728-22.672,0.728-31.824V348.117z"/>
			<path fill="none" stroke="#616BBB" stroke-width="2" stroke-miterlimit="10" d="M299.779,350.51c3.225,0,8.529-0.625,12.48-3.537
				c3.849-2.808,6.033-7.8,6.033-13.104c0-8.945-5.513-14.977-14.041-14.977c-1.664,0-3.225,0.207-4.16,0.623
				c-0.208,1.041-0.312,15.809-0.312,25.17V350.51z"/>
			<path fill="none" stroke="#616BBB" stroke-width="2" stroke-miterlimit="10" d="M299.779,359.246
				c0,8.943,0.729,24.44,1.248,25.793c2.393,1.664,6.24,2.184,8.32,2.184c9.881,0,14.041-5.512,14.041-12.688
				c0-6.656-4.264-14.665-11.336-18.409c-4.16-2.184-9.777-2.808-12.273-2.496V359.246z"/>
		</g>
	</g>
	<g>
		<g>
			<path fill="none" stroke="#616BBB" stroke-width="2" stroke-miterlimit="10" d="M338.882,316.5
				c3.328,0.208,9.152,0.416,14.977,0.416c6.449,0,15.705-0.208,17.993-0.416l-0.521,2.184c-2.184,0.209-8.008,0.832-9.775,1.457
				c0.728,3.535,21.112,51.481,23.816,54.81c2.393-4.784,21.217-43.786,23.297-54.81c-1.977-0.416-6.24-0.937-9.568-1.457
				l-0.52-2.184c1.455,0.208,8.84,0.416,15.184,0.416c4.889,0,9.152-0.208,11.648-0.416l-0.52,2.184
				c-1.977,0.416-3.641,0.832-6.344,1.457c-2.185,1.248-36.09,70.826-37.441,74.154c-3.328-5.824-30.266-67.082-35.361-74.154
				c-1.353-0.416-3.121-0.937-6.449-1.457L338.882,316.5z"/>
		</g>
	</g>
	<g>
		<g>
			<path fill="none" stroke="#616BBB" stroke-width="2" stroke-miterlimit="10" d="M426.347,400.223
				c0.207-1.455,1.664-13,1.664-17.057c0-2.703,0.623-13.936,0.312-16.432l2.392,0.623c-0.104,1.353,0.416,7.281,0.729,9.152
				c2.809,6.656,8.944,11.337,16.121,11.337c8.216,0,14.768-5.408,14.768-13.104c0-8.424-6.552-12.584-13.312-16.953
				c-10.191-6.656-18.305-12.48-18.305-24.232c0-8.112,6.033-18.305,21.426-18.305c6.136,0,11.544,1.248,14.04,1.872
				c0.728-2.496,1.248-5.616,1.872-8.425l2.393-0.312c-1.457,10.296-2.496,19.969-2.496,28.497l-2.393-1.04
				c0-3.536-0.208-6.032-0.416-7.904c-1.145-3.744-6.553-9.36-13.832-9.36c-8.945,0-12.689,5.721-12.689,10.4
				c0,6.76,7.072,10.4,14.977,15.393c8.633,5.408,17.369,11.232,17.369,24.337c0,14.456-11.44,22.673-25.585,22.673
				c-4.992,0-11.44-1.04-14.353-2.6c-0.52,1.976-1.561,6.968-2.288,10.816L426.347,400.223z"/>
		</g>
	</g>
</g>
</svg>
